<svg xmlns="http://www.w3.org/2000/svg" width="800" height="600" viewBox="0 0 800 600"><rect width="800" height="600" fill="#0f172a"/><line x1="250" y1="500" x2="250" y2="120" stroke="#94a3b8" stroke-width="12"/><line x1="450" y1="500" x2="450" y2="120" stroke="#94a3b8" stroke-width="12"/><line x1="250" y1="450" x2="450" y2="450" stroke="#cbd5e1" stroke-width="10"/><line x1="250" y1="380" x2="450" y2="380" stroke="#cbd5e1" stroke-width="10"/><line x1="250" y1="310" x2="450" y2="310" stroke="#cbd5e1" stroke-width="10"/><line x1="250" y1="240" x2="450" y2="240" stroke="#cbd5e1" stroke-width="10"/><circle cx="340" cy="280" r="25" fill="#38bdf8"/><line x1="340" y1="305" x2="340" y2="370" stroke="#38bdf8" stroke-width="10"/><line x1="340" y1="330" x2="305" y2="350" stroke="#38bdf8" stroke-width="10"/><line x1="340" y1="330" x2="375" y2="300" stroke="#38bdf8" stroke-width="10"/><line x1="340" y1="370" x2="315" y2="420" stroke="#38bdf8" stroke-width="10"/><line x1="340" y1="370" x2="375" y2="415" stroke="#38bdf8" stroke-width="10"/><polyline points="520,430 580,360 640,300 700,200" fill="none" stroke="#22c55e" stroke-width="12"/><polygon points="700,200 670,205 690,230" fill="#22c55e"/><text x="400" y="80" text-anchor="middle" font-size="38" fill="white">Career Growth</text></svg>